<mxfile host="app.diagrams.net" modified="2024-04-22T10:29:39.483Z" agent="Mozilla/5.0 (Windows NT 10.0; Win64; x64) AppleWebKit/537.36 (KHTML, like Gecko) Chrome/123.0.0.0 Safari/537.36" etag="E--HelTiYt14AwOFflfR" version="24.0.7" type="github">
  <diagram name="第 1 页" id="6ea9jPT_uK1SZF-gVTyA">
    <mxGraphModel dx="1434" dy="780" grid="1" gridSize="10" guides="1" tooltips="1" connect="1" arrows="1" fold="1" page="1" pageScale="1" pageWidth="827" pageHeight="1169" math="0" shadow="0">
      <root>
        <mxCell id="0" />
        <mxCell id="1" parent="0" />
        <mxCell id="8tkGo3kgrXpIo5SqFycz-1" value="OSCManager&lt;div&gt;(BPLib)&lt;/div&gt;&lt;div&gt;官方&lt;/div&gt;" style="rounded=0;whiteSpace=wrap;html=1;" vertex="1" parent="1">
          <mxGeometry x="270" y="330" width="120" height="60" as="geometry" />
        </mxCell>
        <mxCell id="8tkGo3kgrXpIo5SqFycz-2" value="&lt;div&gt;VMCHelperBPLibrary&lt;/div&gt;&lt;div&gt;(BPLib)&lt;/div&gt;&lt;div&gt;封装&lt;/div&gt;" style="rounded=0;whiteSpace=wrap;html=1;" vertex="1" parent="1">
          <mxGeometry x="270" y="420" width="120" height="60" as="geometry" />
        </mxCell>
        <mxCell id="8tkGo3kgrXpIo5SqFycz-4" value="&lt;div&gt;UTestBoneData&lt;/div&gt;&lt;div&gt;(UObject)&lt;/div&gt;" style="swimlane;fontStyle=0;childLayout=stackLayout;horizontal=1;startSize=30;horizontalStack=0;resizeParent=1;resizeParentMax=0;resizeLast=0;collapsible=1;marginBottom=0;whiteSpace=wrap;html=1;" vertex="1" parent="1">
          <mxGeometry x="640" y="585" width="140" height="90" as="geometry" />
        </mxCell>
        <mxCell id="8tkGo3kgrXpIo5SqFycz-6" value="&lt;span style=&quot;text-align: center;&quot;&gt;FTestElement Root&lt;/span&gt;" style="text;strokeColor=none;fillColor=none;align=left;verticalAlign=middle;spacingLeft=4;spacingRight=4;overflow=hidden;points=[[0,0.5],[1,0.5]];portConstraint=eastwest;rotatable=0;whiteSpace=wrap;html=1;" vertex="1" parent="8tkGo3kgrXpIo5SqFycz-4">
          <mxGeometry y="30" width="140" height="30" as="geometry" />
        </mxCell>
        <mxCell id="8tkGo3kgrXpIo5SqFycz-7" value="Delegate OnReceived" style="text;strokeColor=none;fillColor=none;align=left;verticalAlign=middle;spacingLeft=4;spacingRight=4;overflow=hidden;points=[[0,0.5],[1,0.5]];portConstraint=eastwest;rotatable=0;whiteSpace=wrap;html=1;" vertex="1" parent="8tkGo3kgrXpIo5SqFycz-4">
          <mxGeometry y="60" width="140" height="30" as="geometry" />
        </mxCell>
        <mxCell id="8tkGo3kgrXpIo5SqFycz-8" value="VMCManager" style="swimlane;fontStyle=0;childLayout=stackLayout;horizontal=1;startSize=30;horizontalStack=0;resizeParent=1;resizeParentMax=0;resizeLast=0;collapsible=1;marginBottom=0;whiteSpace=wrap;html=1;" vertex="1" parent="1">
          <mxGeometry x="162" y="520" width="336" height="120" as="geometry" />
        </mxCell>
        <mxCell id="8tkGo3kgrXpIo5SqFycz-9" value="Singleton" style="text;strokeColor=none;fillColor=none;align=left;verticalAlign=middle;spacingLeft=4;spacingRight=4;overflow=hidden;points=[[0,0.5],[1,0.5]];portConstraint=eastwest;rotatable=0;whiteSpace=wrap;html=1;" vertex="1" parent="8tkGo3kgrXpIo5SqFycz-8">
          <mxGeometry y="30" width="336" height="30" as="geometry" />
        </mxCell>
        <mxCell id="8tkGo3kgrXpIo5SqFycz-10" value="TMap&amp;lt;int32,UTestBoneData&amp;gt;DataMap key为port，value为数据体" style="text;strokeColor=none;fillColor=none;align=left;verticalAlign=middle;spacingLeft=4;spacingRight=4;overflow=hidden;points=[[0,0.5],[1,0.5]];portConstraint=eastwest;rotatable=0;whiteSpace=wrap;html=1;" vertex="1" parent="8tkGo3kgrXpIo5SqFycz-8">
          <mxGeometry y="60" width="336" height="30" as="geometry" />
        </mxCell>
        <mxCell id="8tkGo3kgrXpIo5SqFycz-11" value="TArray&amp;lt;UOSCServer&amp;gt; 每个Port对应一个server接收数据" style="text;strokeColor=none;fillColor=none;align=left;verticalAlign=middle;spacingLeft=4;spacingRight=4;overflow=hidden;points=[[0,0.5],[1,0.5]];portConstraint=eastwest;rotatable=0;whiteSpace=wrap;html=1;" vertex="1" parent="8tkGo3kgrXpIo5SqFycz-8">
          <mxGeometry y="90" width="336" height="30" as="geometry" />
        </mxCell>
        <mxCell id="8tkGo3kgrXpIo5SqFycz-12" value="FTestElement" style="swimlane;fontStyle=0;childLayout=stackLayout;horizontal=1;startSize=30;horizontalStack=0;resizeParent=1;resizeParentMax=0;resizeLast=0;collapsible=1;marginBottom=0;whiteSpace=wrap;html=1;" vertex="1" parent="1">
          <mxGeometry x="640" y="700" width="140" height="90" as="geometry" />
        </mxCell>
        <mxCell id="8tkGo3kgrXpIo5SqFycz-13" value="FVector Location" style="text;strokeColor=none;fillColor=none;align=left;verticalAlign=middle;spacingLeft=4;spacingRight=4;overflow=hidden;points=[[0,0.5],[1,0.5]];portConstraint=eastwest;rotatable=0;whiteSpace=wrap;html=1;" vertex="1" parent="8tkGo3kgrXpIo5SqFycz-12">
          <mxGeometry y="30" width="140" height="30" as="geometry" />
        </mxCell>
        <mxCell id="8tkGo3kgrXpIo5SqFycz-14" value="FQuat Rotation" style="text;strokeColor=none;fillColor=none;align=left;verticalAlign=middle;spacingLeft=4;spacingRight=4;overflow=hidden;points=[[0,0.5],[1,0.5]];portConstraint=eastwest;rotatable=0;whiteSpace=wrap;html=1;" vertex="1" parent="8tkGo3kgrXpIo5SqFycz-12">
          <mxGeometry y="60" width="140" height="30" as="geometry" />
        </mxCell>
        <mxCell id="8tkGo3kgrXpIo5SqFycz-16" value="" style="shape=process;whiteSpace=wrap;html=1;backgroundOutline=1;" vertex="1" parent="1">
          <mxGeometry x="490" y="400" width="120" height="60" as="geometry" />
        </mxCell>
      </root>
    </mxGraphModel>
  </diagram>
</mxfile>
